<svg width="20" height="20" viewBox="0 0 20 20" fill="none" xmlns="http://www.w3.org/2000/svg">
<path d="M9.16675 17.2916C4.68341 17.2916 1.04175 13.65 1.04175 9.16663C1.04175 4.68329 4.68341 1.04163 9.16675 1.04163C13.6501 1.04163 17.2917 4.68329 17.2917 9.16663C17.2917 13.65 13.6501 17.2916 9.16675 17.2916ZM9.16675 2.29163C5.37508 2.29163 2.29175 5.37496 2.29175 9.16663C2.29175 12.9583 5.37508 16.0416 9.16675 16.0416C12.9584 16.0416 16.0417 12.9583 16.0417 9.16663C16.0417 5.37496 12.9584 2.29163 9.16675 2.29163Z" fill="#FFFFFE"/>
<path d="M16.8001 18.9916C16.7334 18.9916 16.6667 18.9833 16.6084 18.975C16.2167 18.925 15.5084 18.6583 15.1084 17.4666C14.9001 16.8416 14.9751 16.2166 15.3167 15.7416C15.6584 15.2666 16.2334 15 16.8917 15C17.7417 15 18.4084 15.325 18.7084 15.9C19.0084 16.475 18.9251 17.2083 18.4501 17.9166C17.8584 18.8083 17.2167 18.9916 16.8001 18.9916ZM16.3001 17.075C16.4417 17.5083 16.6417 17.725 16.7751 17.7416C16.9084 17.7583 17.1584 17.6 17.4167 17.225C17.6584 16.8666 17.6751 16.6083 17.6167 16.4916C17.5584 16.375 17.3251 16.25 16.8917 16.25C16.6334 16.25 16.4417 16.3333 16.3334 16.475C16.2334 16.6166 16.2167 16.8333 16.3001 17.075Z" fill="#FFFFFE"/>
</svg>
